<?xml version="1.0" standalone="no"?>
<!DOCTYPE svg PUBLIC "-//W3C//DTD SVG 20010904//EN"
 "http://www.w3.org/TR/2001/REC-SVG-20010904/DTD/svg10.dtd">
<svg version="1.0" xmlns="http://www.w3.org/2000/svg"
 width="46px" height="46px" viewBox="0 0 800.000000 600.000000"
 preserveAspectRatio="xMidYMid meet">
<metadata>
Created by potrace 1.16, written by Peter Selinger 2001-2019
</metadata>
<g transform="translate(0.000000,600.000000) scale(0.100000,-0.100000)"
fill="rgb(241, 241, 241)" stroke="none">
<path d="M5023 4901 c-202 -70 -450 -258 -758 -572 -271 -278 -333 -359 -273
-359 15 0 66 46 164 148 309 322 608 554 830 643 105 43 213 51 262 19 105
-65 103 -299 -5 -635 -45 -140 -179 -474 -197 -493 -2 -2 -41 23 -87 54 -179
122 -352 184 -514 184 -136 0 -236 -35 -342 -119 l-51 -40 -88 50 c-272 157
-566 275 -799 321 -117 23 -286 27 -365 9 -272 -64 -399 -305 -329 -621 16
-70 144 -392 215 -539 36 -73 63 -135 61 -137 -8 -8 -85 55 -121 100 -65 78
-139 226 -191 379 -34 100 -53 143 -60 136 -16 -16 -11 -196 8 -269 10 -35 34
-104 53 -154 l36 -89 -26 -86 c-43 -139 -65 -264 -77 -441 -34 -488 61 -833
259 -947 26 -15 75 -53 109 -85 34 -32 88 -71 120 -86 50 -23 71 -27 153 -27
84 0 102 3 152 28 159 78 297 278 385 555 32 104 37 112 53 100 10 -7 67 -52
126 -99 495 -391 1057 -672 1492 -744 138 -23 351 -17 432 13 90 32 140 61
189 111 144 143 157 358 40 663 -35 90 -64 118 -104 100 -36 -17 -39 -49 -12
-122 43 -113 60 -211 55 -318 -5 -114 -24 -160 -90 -216 -183 -157 -655 -55
-1213 262 -204 116 -525 340 -718 500 l-89 74 49 35 c81 58 169 94 330 134
148 37 193 45 193 34 0 -3 -37 -55 -81 -117 -89 -121 -105 -167 -76 -212 25
-37 78 -51 120 -31 34 16 107 107 207 260 29 44 57 82 61 85 11 8 139 214 222
358 252 437 526 1006 611 1270 118 367 142 643 69 805 -28 62 -85 120 -139
143 -56 23 -158 17 -251 -15z m-1893 -911 c201 -25 453 -108 705 -231 77 -37
146 -72 154 -77 11 -8 -4 -34 -69 -122 -89 -120 -174 -198 -263 -243 -74 -38
-171 -37 -337 4 -145 35 -305 48 -391 30 -30 -6 -84 -25 -118 -41 -35 -17 -64
-30 -66 -30 -10 0 -82 182 -102 259 -30 117 -28 232 5 297 67 132 233 184 482
154z m1394 -421 c22 -17 26 -29 26 -68 0 -77 -56 -131 -136 -131 -106 0 -116
140 -15 199 46 26 91 27 125 0z m-186 -319 c45 -42 41 -100 -11 -156 -54 -58
-143 -60 -173 -2 -27 53 -2 121 59 158 42 26 97 26 125 0z m300 -123 c14 -14
22 -32 22 -54 0 -95 -102 -168 -178 -129 -35 18 -42 33 -42 87 0 70 85 137
155 121 11 -3 30 -14 43 -25z m-1530 -382 c19 -16 34 -41 41 -70 6 -25 13 -45
16 -45 2 0 27 9 55 20 72 28 113 26 151 -8 26 -23 32 -36 32 -69 0 -65 -28
-103 -106 -142 -67 -34 -68 -35 -60 -65 4 -17 8 -55 8 -84 0 -50 -3 -56 -41
-92 -53 -50 -104 -61 -154 -34 -29 16 -38 29 -53 76 l-18 58 -37 -16 c-70 -31
-101 -36 -137 -24 -45 15 -65 44 -65 96 0 61 33 103 108 139 56 27 62 33 57
55 -16 83 -16 116 3 150 43 78 140 105 200 55z"/>
<path d="M2972 3849 c-71 -12 -145 -51 -177 -93 -26 -34 -48 -123 -29 -115 5
2 36 18 70 36 144 75 322 88 522 38 62 -15 115 -25 119 -22 17 18 -164 117
-257 141 -78 19 -186 26 -248 15z"/>
<path d="M3837 4279 c-25 -14 -47 -62 -47 -102 0 -77 92 -106 151 -48 38 39
41 106 6 139 -25 24 -79 29 -110 11z"/>
<path d="M5456 3993 c-12 -60 -105 -340 -144 -428 -46 -105 -299 -594 -444
-860 -64 -115 -135 -246 -159 -290 -23 -44 -78 -141 -121 -215 -42 -74 -75
-136 -73 -139 9 -8 84 51 139 109 l56 59 123 -64 c182 -95 264 -118 412 -119
116 -1 123 0 186 31 78 38 141 102 175 177 27 60 46 172 37 231 -3 24 1 62 11
95 20 67 21 168 1 245 -23 92 -115 269 -200 384 l-77 104 40 166 c22 91 46
198 53 236 17 88 18 290 3 305 -9 9 -13 2 -18 -27z"/>
<path d="M5610 3245 c0 -2 16 -30 37 -62 50 -79 97 -184 129 -289 24 -77 27
-107 28 -226 1 -76 3 -138 6 -138 9 0 42 64 61 118 54 155 21 309 -98 465 -51
66 -163 157 -163 132z"/>
<path d="M2200 2640 c-95 -102 -147 -232 -157 -391 -13 -204 52 -438 164 -591
33 -45 89 -95 98 -86 2 2 -9 44 -25 94 -95 296 -113 661 -46 927 13 50 22 94
20 96 -3 3 -27 -19 -54 -49z"/>
<path d="M3591 1626 c-19 -20 -22 -32 -17 -59 7 -37 56 -90 99 -106 73 -28
167 1 167 51 0 37 -30 84 -72 111 -58 37 -144 39 -177 3z"/>
<path d="M3957 1469 c-47 -28 -36 -102 19 -125 69 -29 136 30 104 91 -21 40
-83 57 -123 34z"/>
</g>
</svg>
